<svg width="3013" height="264" viewBox="0 0 3013 264" fill="none" xmlns="http://www.w3.org/2000/svg">
<path opacity="0.125" d="M12.2507 156.008C351.106 153.289 378.391 128.516 598.715 141.015C819.039 153.513 1020.25 192.648 1264.32 164.781C1508.4 136.911 1649.89 47.8146 1810.14 85.7848C1970.39 123.755 1964.86 177.762 2103.86 171.704C2242.87 165.646 2398.1 106.308 2507.95 105.772C2602.51 105.31 2515.96 159.139 2775.81 155.908" stroke="#1CA7DA" stroke-width="0.58848" stroke-miterlimit="10"/>
<path opacity="0.25" d="M24.5003 161.156C363.356 158.441 381.516 108.595 601.84 121.094C822.164 133.593 1026.25 206.328 1270.33 178.457C1514.41 150.586 1647.87 37.2911 1808.12 75.2613C1968.37 113.232 1913.63 185.804 2052.64 179.746C2191.64 173.688 2353.62 102.504 2478.73 103.589C2573.27 104.408 2549.81 177.858 2809.61 164.079" stroke="#1CA7DA" stroke-width="0.65375" stroke-miterlimit="10"/>
<path opacity="0.375" d="M36.7506 166.303C375.606 163.588 384.642 88.6702 604.966 101.173C825.29 113.672 1032.25 220.003 1276.33 192.136C1520.41 164.265 1645.85 26.7751 1806.1 64.7453C1966.35 102.716 1862.4 193.849 2001.41 187.795C2140.41 181.737 2309.13 99.2646 2449.52 101.41C2544.03 102.857 2583.67 196.581 2843.42 172.253" stroke="#1CA7DA" stroke-width="0.71923" stroke-miterlimit="10"/>
<path opacity="0.5" d="M48.9998 171.446C387.855 168.731 387.766 68.7451 608.09 81.2439C828.414 93.7426 1038.26 233.674 1282.33 205.803C1526.41 177.932 1643.82 16.247 1804.08 54.2173C1964.33 92.1875 1811.19 201.886 1950.19 195.832C2089.19 189.774 2264.65 95.9172 2420.32 99.2186C2514.79 101.223 2617.53 215.292 2877.24 180.411" stroke="#1CA7DA" stroke-width="0.7845" stroke-miterlimit="10"/>
<path opacity="0.625" d="M61.2508 176.594C400.106 173.879 390.892 48.8252 611.216 61.324C831.541 73.8227 1044.27 247.35 1288.33 219.484C1532.41 191.613 1641.8 5.73249 1802.05 43.7027C1962.3 81.673 1759.95 209.937 1898.96 203.879C2037.96 197.821 2220.17 92.4878 2391.1 97.0407C2485.55 99.5563 2651.37 234.016 2911.04 188.586" stroke="#1CA7DA" stroke-width="0.84998" stroke-miterlimit="10"/>
<path opacity="0.75" d="M73.5012 181.742C412.356 179.027 394.018 28.9045 614.342 41.4032C834.666 53.902 1050.27 261.025 1294.34 233.159C1538.42 205.292 1639.79 -4.78724 1800.04 33.183C1960.29 71.1533 1708.73 217.982 1847.74 211.924C1986.75 205.866 2175.72 88.9658 2361.9 94.8575C2456.33 97.8471 2685.23 252.734 2944.85 196.756" stroke="#1CA7DA" stroke-width="0.91525" stroke-miterlimit="10"/>
<path opacity="0.875" d="M85.7508 186.89C424.606 184.174 397.151 8.98398 617.467 21.4827C837.791 33.9815 1056.27 274.705 1300.35 246.834C1544.42 218.964 1637.77 -15.3107 1798.02 22.6595C1958.27 60.6298 1657.5 226.024 1796.51 219.966C1935.52 213.908 2131.27 85.3445 2332.7 92.6749C2427.11 96.1094 2719.09 271.454 2978.66 204.927" stroke="#1CA7DA" stroke-width="0.98073" stroke-miterlimit="10"/>
<path d="M98.0012 192.037C436.856 189.321 400.276 -10.9372 620.6 1.56156C840.924 14.0603 1062.29 288.38 1306.36 260.514C1550.44 232.643 1635.76 -25.8267 1796.01 12.1436C1956.26 50.1138 1606.3 234.069 1745.3 228.015C1884.31 221.957 2086.86 81.6392 2303.49 90.4956C2397.9 94.3542 2752.95 290.176 3012.48 213.096" stroke="#1CA7DA" stroke-width="1.046" stroke-miterlimit="10"/>
</svg>
